<?xml version="1.0" standalone="no"?>
<!DOCTYPE svg PUBLIC "-//W3C//DTD SVG 20010904//EN"
 "http://www.w3.org/TR/2001/REC-SVG-20010904/DTD/svg10.dtd">
<svg version="1.0" xmlns="http://www.w3.org/2000/svg"
 width="152.000000pt" height="107.000000pt" viewBox="0 0 152.000000 107.000000"
 preserveAspectRatio="xMidYMid meet">

<g transform="translate(0.000000,107.000000) scale(0.100000,-0.100000)"
fill="#0048ff" stroke="none">
<path d="M75 1045 l-25 -24 0 -329 c0 -267 3 -332 14 -341 9 -8 120 -11 387
-9 l374 3 3 339 c2 337 2 340 -20 363 l-21 23 -344 0 -344 0 -24 -25z"/>
<path d="M913 925 l-23 -16 0 -315 0 -314 -167 0 c-159 0 -165 -1 -150 -18 9
-10 23 -34 32 -55 l15 -37 174 0 174 0 11 33 c13 39 64 91 104 106 92 35 210
-22 233 -112 l6 -28 97 3 96 3 0 50 c0 49 -1 50 -32 53 l-33 3 0 137 c0 75 -3
155 -7 177 -4 26 -33 79 -81 150 -126 186 -128 187 -302 193 -104 3 -129 1
-147 -13z m330 -184 c31 -44 57 -87 57 -96 0 -14 -18 -15 -152 -13 l-153 3 -3
79 c-2 44 -1 85 2 93 4 9 30 13 99 13 l93 0 57 -79z"/>
<path d="M4 266 c-3 -8 -4 -31 -2 -52 l3 -39 127 -3 127 -3 16 38 c9 20 23 45
32 55 15 17 9 18 -141 18 -125 0 -158 -3 -162 -14z"/>
<path d="M383 266 c-103 -47 -94 -208 14 -245 145 -51 246 151 118 235 -34 22
-94 27 -132 10z m101 -71 c26 -27 29 -56 9 -84 -29 -38 -74 -40 -102 -5 -26
33 -26 45 0 78 23 30 68 35 93 11z"/>
<path d="M1094 266 c-90 -40 -108 -157 -33 -220 44 -37 93 -43 144 -18 98 48
99 189 1 236 -41 19 -71 20 -112 2z m98 -73 c22 -20 23 -70 1 -95 -36 -40
-113 -8 -113 47 0 54 71 85 112 48z"/>
</g>
</svg>
